<svg xmlns="http://www.w3.org/2000/svg" viewBox="0 0 64 64" shape-rendering="crispEdges" width="512" height="512">
  <rect x="2" y="20" width="2" height="2" fill="#3B1F6B"/>
  <rect x="60" y="20" width="2" height="2" fill="#3B1F6B"/>
  <rect x="2" y="44" width="2" height="2" fill="#3B1F6B"/>
  <rect x="60" y="44" width="2" height="2" fill="#3B1F6B"/>
  <rect x="6" y="6" width="2" height="2" fill="#6B3FB5"/>
  <rect x="56" y="6" width="2" height="2" fill="#6B3FB5"/>
  <rect x="6" y="56" width="2" height="2" fill="#6B3FB5"/>
  <rect x="56" y="56" width="2" height="2" fill="#6B3FB5"/>
  <rect x="14" y="56" width="40" height="2" fill="#0F0817"/>
  <rect x="52" y="10" width="2" height="46" fill="#0F0817"/>
  <rect x="10" y="8" width="6" height="48" fill="#1F1335"/>
  <rect x="10" y="8" width="6" height="2" fill="#1A1520"/>
  <rect x="10" y="54" width="6" height="2" fill="#1A1520"/>
  <rect x="16" y="8" width="36" height="48" fill="#3B1F6B"/>
  <rect x="16" y="8" width="36" height="2" fill="#1A1520"/>
  <rect x="16" y="54" width="36" height="2" fill="#1A1520"/>
  <rect x="50" y="8" width="2" height="48" fill="#1A1520"/>
  <rect x="44" y="10" width="6" height="2" fill="#6B3FB5"/>
  <rect x="48" y="12" width="2" height="14" fill="#6B3FB5"/>
  <rect x="52" y="10" width="2" height="44" fill="#B5AEC2"/>
  <rect x="52" y="14" width="2" height="2" fill="#6B6478"/>
  <rect x="52" y="26" width="2" height="2" fill="#6B6478"/>
  <rect x="52" y="40" width="2" height="2" fill="#6B6478"/>
  <rect x="18" y="10" width="4" height="4" fill="#8C6118"/>
  <rect x="18" y="10" width="4" height="2" fill="#D4A841"/>
  <rect x="46" y="10" width="4" height="4" fill="#8C6118"/>
  <rect x="46" y="10" width="4" height="2" fill="#D4A841"/>
  <rect x="18" y="50" width="4" height="4" fill="#8C6118"/>
  <rect x="18" y="50" width="4" height="2" fill="#D4A841"/>
  <rect x="46" y="50" width="4" height="4" fill="#8C6118"/>
  <rect x="46" y="50" width="4" height="2" fill="#D4A841"/>
  <rect x="28" y="24" width="12" height="12" fill="#8C6118"/>
  <rect x="28" y="24" width="12" height="2" fill="#D4A841"/>
  <rect x="28" y="24" width="2" height="12" fill="#D4A841"/>
  <rect x="38" y="24" width="2" height="12" fill="#3D2B0A"/>
  <rect x="28" y="34" width="12" height="2" fill="#3D2B0A"/>
  <rect x="30" y="26" width="6" height="2" fill="#1A1520"/>
  <rect x="30" y="26" width="2" height="8" fill="#1A1520"/>
  <rect x="30" y="32" width="6" height="2" fill="#1A1520"/>
  <rect x="34" y="30" width="2" height="2" fill="#1A1520"/>
  <rect x="34" y="32" width="2" height="2" fill="#1A1520"/>
  <rect x="29" y="25" width="2" height="2" fill="#F5DC8A"/>
  <rect x="32" y="2" width="2" height="2" fill="#F5DC8A"/>
  <rect x="31" y="3" width="1" height="1" fill="#D4A841"/>
  <rect x="34" y="3" width="1" height="1" fill="#D4A841"/>
  <rect x="6" y="60" width="2" height="2" fill="#F5DC8A"/>
  <rect x="5" y="61" width="1" height="1" fill="#D4A841"/>
  <rect x="60" y="32" width="2" height="2" fill="#F5DC8A"/>
  <rect x="59" y="33" width="1" height="1" fill="#D4A841"/>
  <rect x="58" y="14" width="2" height="2" fill="#7CE3FF"/>
  <rect x="57" y="15" width="1" height="1" fill="#28A0D6"/>
  <rect x="56" y="50" width="2" height="2" fill="#A876EB"/>
  <rect x="55" y="51" width="1" height="1" fill="#6B3FB5"/>
</svg>
